<svg xmlns="http://www.w3.org/2000/svg" width="154.89" height="22.2" viewBox="0 0 154.89 22.2">
  <path id="Caminho_19713" data-name="Caminho 19713" d="M-145.11-3.48c-4.35,0-6.6-3.51-6.6-7.02,0-3.48,2.25-6.99,6.6-6.99a6.239,6.239,0,0,1,4.98,2.25l3.36-2.22a10.316,10.316,0,0,0-8.34-3.9A10.487,10.487,0,0,0-155.79-10.5,10.512,10.512,0,0,0-145.11.39a10.4,10.4,0,0,0,8.34-3.9l-3.36-2.22A6.239,6.239,0,0,1-145.11-3.48Zm17.85-12.09a7.871,7.871,0,0,0-8.01,7.98A7.889,7.889,0,0,0-127.26.39a7.9,7.9,0,0,0,8.04-7.98A7.878,7.878,0,0,0-127.26-15.57Zm0,12.3a4.075,4.075,0,0,1-4.11-4.32,4.075,4.075,0,0,1,4.11-4.32,4.081,4.081,0,0,1,4.14,4.32A4.081,4.081,0,0,1-127.26-3.27Zm18.96-12.3a5.06,5.06,0,0,0-4.44,2.22v-1.86h-3.78V0h3.78V-8.46a3.141,3.141,0,0,1,3.24-3.42c2.16,0,2.97,1.47,2.97,3.42V0h3.81V-9.24C-102.72-12.45-104.46-15.57-108.3-15.57Zm17.19,3.84v-3.48h-3.24v-3.18h-3.81v3.18h-2.16v3.48h2.16v6.18C-98.16-2.4-96.6.21-92.7.21A4.925,4.925,0,0,0-91.11,0V-3.48c-.27.03-.63.06-.9.06-2.1,0-2.34-1.02-2.34-2.76v-5.55Zm9.48-3.84a9.149,9.149,0,0,0-6.33,2.46l2.61,1.98a5.958,5.958,0,0,1,3.18-1.11c2.34,0,3.12.96,3.15,3.15h-1.65c-2.01,0-8.19,0-8.19,5.01,0,3.24,3.12,4.47,5.4,4.47a5.166,5.166,0,0,0,4.44-2.01V0h3.81V-9.18C-75.21-12.81-76.8-15.57-81.63-15.57Zm2.61,11.46a3.62,3.62,0,0,1-3.3,1.74c-1.89,0-2.64-.93-2.64-2.07,0-2.28,2.97-2.25,5.7-2.25h.24Zm16.08-11.46a5.734,5.734,0,0,0-4.86,2.16V-21h-3.81V0h3.81V-1.77A5.814,5.814,0,0,0-62.94.39c4.71,0,7.41-3.99,7.41-7.98S-58.23-15.57-62.94-15.57Zm-.6,12.3a4.039,4.039,0,0,1-4.11-4.32,4.039,4.039,0,0,1,4.11-4.32,4.039,4.039,0,0,1,4.11,4.32A4.039,4.039,0,0,1-63.54-3.27ZM-52.83,0h3.81V-15.21h-3.81Zm1.89-17.43a2.023,2.023,0,0,0,2.04-2.04,2.017,2.017,0,0,0-2.04-2.01,2.01,2.01,0,0,0-2.01,2.01A2.017,2.017,0,0,0-50.94-17.43ZM-38.25-21h-7.02V0h4.08V-6.51h2.94c5.01,0,8.07-2.88,8.07-7.23S-33.24-21-38.25-21Zm0,10.71h-2.94v-6.93h2.94c2.49,0,3.93,1.26,3.93,3.48C-34.32-11.55-35.76-10.29-38.25-10.29Zm14.73-2.43v-2.49h-3.81V0h3.81V-6.27c0-2.82.57-5.7,5.07-5.16v-4.14A6.042,6.042,0,0,0-23.52-12.72Zm14.58-2.85a7.871,7.871,0,0,0-8.01,7.98A7.889,7.889,0,0,0-8.94.39,7.9,7.9,0,0,0-.9-7.59,7.878,7.878,0,0,0-8.94-15.57Zm0,12.3a4.075,4.075,0,0,1-4.11-4.32,4.075,4.075,0,0,1,4.11-4.32A4.081,4.081,0,0,1-4.8-7.59,4.081,4.081,0,0,1-8.94-3.27Zm.18-18.54-1.95,4.2h3.06l2.91-4.2Z" transform="translate(155.79 21.81)"/>
</svg>
